<svg width="20" height="20" viewBox="0 0 20 20" fill="none" xmlns="http://www.w3.org/2000/svg">
<path opacity="0.4" d="M10 4.41675V17.7751C10.1417 17.7751 10.2917 17.7501 10.4083 17.6834L10.4417 17.6668C12.0417 16.7918 14.8333 15.8751 16.6416 15.6334L16.8833 15.6001C17.6833 15.5001 18.3333 14.7501 18.3333 13.9501V3.8834C18.3333 2.89173 17.525 2.14174 16.5334 2.22508C14.7834 2.36674 12.1334 3.2501 10.65 4.1751L10.4417 4.30007C10.3167 4.37507 10.1583 4.41675 10 4.41675Z" fill="#6C7086"/>
<path d="M1.66699 3.89128V13.9496C1.66699 14.7496 2.31698 15.4996 3.11698 15.5996L3.392 15.633C5.20866 15.8746 8.00868 16.7996 9.60868 17.6829C9.71702 17.7496 9.85033 17.7746 10.0003 17.7746V4.41628C9.84199 4.41628 9.68363 4.3746 9.55863 4.2996L9.41698 4.20795C7.93365 3.27461 5.27531 2.38295 3.52531 2.23295H3.47531C2.48364 2.14962 1.66699 2.89128 1.66699 3.89128Z" fill="#6C7086"/>
<path d="M15.8333 2.31641V5.89139C15.8333 6.22472 15.4666 6.42471 15.1833 6.24137L14.1667 5.56638L13.15 6.24137C12.875 6.42471 12.5 6.22472 12.5 5.89139V3.26637C13.5917 2.83303 14.8083 2.48307 15.8333 2.31641Z" fill="#6C7086"/>
</svg>
