<svg width="20" height="20" viewBox="0 0 20 20" fill="none" xmlns="http://www.w3.org/2000/svg">
<circle opacity="0.3" cx="10" cy="10" r="10" fill="#6C7086"/>
<path d="M10.717 4.05402C10.1403 3.96643 9.54754 3.98554 8.98067 4.11002C8.4138 4.2345 7.88669 4.46129 7.43666 4.77434C6.98662 5.08739 6.62466 5.47905 6.3764 5.9216C6.12814 6.36414 5.99964 6.84675 6 7.33527C6.00566 7.55318 6.11351 7.76057 6.30045 7.91301C6.48738 8.06545 6.73853 8.15082 7.00008 8.15082C7.26163 8.15082 7.51278 8.06545 7.69971 7.91301C7.88664 7.76057 7.9945 7.55318 8.00016 7.33527C7.99991 7.1164 8.05141 6.89964 8.1517 6.69735C8.252 6.49507 8.39913 6.31124 8.58469 6.15635C8.77026 6.00146 8.99062 5.87855 9.23319 5.79463C9.47576 5.71072 9.7358 5.66745 9.99844 5.6673C10.1243 5.66682 10.2499 5.6765 10.3734 5.69621C10.7683 5.76002 11.1314 5.92045 11.4163 6.157C11.7013 6.39356 11.8952 6.69552 11.9733 7.02433C12.0521 7.36969 11.9979 7.72699 11.8183 8.0451C11.6387 8.36321 11.343 8.62584 10.9734 8.79543C10.3616 9.09082 9.85606 9.51752 9.50939 10.0311C9.16271 10.5446 8.98762 11.1262 9.00234 11.7153V12.3353C9.00801 12.5532 9.11586 12.7606 9.30279 12.913C9.48973 13.0655 9.74087 13.1508 10.0024 13.1508C10.264 13.1508 10.5151 13.0655 10.7021 12.913C10.889 12.7606 10.9968 12.5532 11.0025 12.3353V11.7161C10.9899 11.4261 11.0692 11.1384 11.2325 10.8821C11.3958 10.6258 11.6372 10.4098 11.9325 10.256C12.6572 9.92431 13.2408 9.41364 13.603 8.79422C13.9651 8.1748 14.088 7.47708 13.9547 6.79706C13.8215 6.11704 13.4386 5.48816 12.8588 4.99693C12.279 4.50571 11.5307 4.1763 10.717 4.05402Z" fill="#6C7086"/>
<path d="M10.0027 14.002C10.2674 14.0025 10.5211 14.0905 10.7081 14.2467C10.8951 14.4029 11.0002 14.6145 11.0002 14.8352C11.0002 15.0558 10.8951 15.2674 10.7081 15.4236C10.5211 15.5798 10.2674 15.6678 10.0027 15.6684C9.87112 15.6687 9.7408 15.6473 9.61917 15.6056C9.49754 15.5639 9.38698 15.5026 9.29384 15.4252C9.2007 15.3478 9.1268 15.2558 9.07638 15.1546C9.02595 15.0533 9 14.9448 9 14.8352C9 14.7255 9.02595 14.617 9.07638 14.5158C9.1268 14.4145 9.2007 14.3226 9.29384 14.2452C9.38698 14.1678 9.49754 14.1064 9.61917 14.0647C9.7408 14.023 9.87112 14.0016 10.0027 14.002Z" fill="#6C7086"/>
</svg>
