<svg width="20" height="20" viewBox="0 0 20 20" fill="none" xmlns="http://www.w3.org/2000/svg">
<g clip-path="url(#clip0_17_5665)">
<path opacity="0.4" d="M14.6079 6.47533C14.5495 6.467 14.4912 6.467 14.4329 6.47533C13.1412 6.43366 12.1162 5.37533 12.1162 4.07533C12.1162 2.75033 13.1912 1.66699 14.5245 1.66699C15.8495 1.66699 16.9329 2.74199 16.9329 4.07533C16.9245 5.37533 15.8995 6.43366 14.6079 6.47533Z" fill="#6C7086"/>
<path opacity="0.4" d="M17.3257 12.2503C16.3923 12.8753 15.084 13.1087 13.8757 12.9503C14.1923 12.267 14.359 11.5087 14.3673 10.7087C14.3673 9.87534 14.184 9.08367 13.834 8.392C15.0673 8.22534 16.3757 8.45866 17.3173 9.08366C18.634 9.95033 18.634 11.3753 17.3257 12.2503Z" fill="#6C7086"/>
<path opacity="0.4" d="M5.36601 6.47533C5.42435 6.467 5.48268 6.467 5.54102 6.47533C6.83268 6.43366 7.85768 5.37533 7.85768 4.07533C7.85768 2.75033 6.78268 1.66699 5.44935 1.66699C4.12435 1.66699 3.04102 2.74199 3.04102 4.07533C3.04935 5.37533 4.07435 6.43366 5.36601 6.47533Z" fill="#6C7086"/>
<path opacity="0.4" d="M5.45892 10.7088C5.45892 11.5172 5.63392 12.2838 5.95059 12.9755C4.77559 13.1005 3.55059 12.8505 2.65059 12.2588C1.33392 11.3838 1.33392 9.95882 2.65059 9.08382C3.54225 8.48382 4.80059 8.24216 5.98392 8.37549C5.64225 9.07549 5.45892 9.86716 5.45892 10.7088Z" fill="#6C7086"/>
<path d="M10.1 13.225C10.0333 13.2167 9.95833 13.2167 9.88333 13.225C8.35 13.175 7.125 11.9167 7.125 10.3667C7.125 8.78334 8.4 7.5 9.99167 7.5C11.575 7.5 12.8583 8.78334 12.8583 10.3667C12.8583 11.9167 11.6417 13.175 10.1 13.225Z" fill="#6C7086"/>
<path d="M7.39199 14.9502C6.13366 15.7919 6.13366 17.1752 7.39199 18.0085C8.82533 18.9669 11.1753 18.9669 12.6087 18.0085C13.867 17.1669 13.867 15.7835 12.6087 14.9502C11.1837 13.9919 8.83366 13.9919 7.39199 14.9502Z" fill="#6C7086"/>
</g>
<defs>
<clipPath id="clip0_17_5665">
<rect width="20" height="20" rx="3" fill="white"/>
</clipPath>
</defs>
</svg>
