<svg width="20" height="20" viewBox="0 0 20 20" fill="none" xmlns="http://www.w3.org/2000/svg">
<path d="M7.61719 8.98438C9.77455 8.98438 11.5234 7.23549 11.5234 5.07812C11.5234 2.92076 9.77455 1.17188 7.61719 1.17188C5.45983 1.17188 3.71094 2.92076 3.71094 5.07812C3.71094 7.23549 5.45983 8.98438 7.61719 8.98438Z" fill="#6C7086"/>
<path d="M8.08047 12.5H7.15273L6.66797 16.1188L7.61641 17.3047L8.56484 16.1191L8.08047 12.5Z" fill="#6C7086"/>
<path d="M7.13672 11.3281H8.09687L8.29219 10.1562H6.94141L7.13672 11.3281Z" fill="#6C7086"/>
<path d="M5.47383 16.2109L6.04805 11.923L5.75352 10.1562H4.6875C3.4443 10.1562 2.25201 10.6501 1.37294 11.5292C0.49386 12.4083 0 13.6005 0 14.8438L0 18.2422C0 18.3976 0.0617325 18.5466 0.171617 18.6565C0.281502 18.7664 0.430537 18.8281 0.585938 18.8281H7.33555L5.59727 16.6551C5.54773 16.5932 5.51125 16.522 5.49004 16.4457C5.46882 16.3693 5.4633 16.2895 5.47383 16.2109Z" fill="#6C7086"/>
<path d="M11.623 10.2813C11.2702 10.1982 10.909 10.1563 10.5465 10.1562H9.48047L9.18594 11.9234L9.76016 16.2109C9.77062 16.2894 9.76508 16.3692 9.74387 16.4454C9.72265 16.5217 9.6862 16.5929 9.63672 16.6547L7.89844 18.8281H10.9371C10.5557 18.3216 10.35 17.7044 10.3512 17.0703V12.6953C10.3514 12.2199 10.4673 11.7517 10.6889 11.3312C10.9105 10.9106 11.2311 10.5503 11.623 10.2813Z" fill="#6C7086"/>
<path opacity="0.4" d="M18.2422 10.9375H17.9102V9.96094C17.9102 9.59834 17.7661 9.25059 17.5097 8.99419C17.2533 8.73779 16.9056 8.59375 16.543 8.59375H14.9805C14.6179 8.59375 14.2701 8.73779 14.0137 8.99419C13.7573 9.25059 13.6133 9.59834 13.6133 9.96094V10.9375H13.2812C12.815 10.9375 12.3679 11.1227 12.0383 11.4524C11.7086 11.782 11.5234 12.2291 11.5234 12.6953V13.0859H20V12.6953C20 12.2291 19.8148 11.782 19.4851 11.4524C19.1555 11.1227 18.7084 10.9375 18.2422 10.9375ZM16.7383 10.9375H14.7852V9.96094C14.7852 9.90914 14.8057 9.85946 14.8424 9.82283C14.879 9.7862 14.9287 9.76562 14.9805 9.76562H16.543C16.5948 9.76562 16.6444 9.7862 16.6811 9.82283C16.7177 9.85946 16.7383 9.90914 16.7383 9.96094V10.9375Z" fill="#6C7086"/>
<path opacity="0.4" d="M11.5234 17.0703C11.5234 17.5365 11.7086 17.9836 12.0383 18.3133C12.3679 18.6429 12.815 18.8281 13.2812 18.8281H18.2422C18.7084 18.8281 19.1555 18.6429 19.4851 18.3133C19.8148 17.9836 20 17.5365 20 17.0703V14.2578H11.5234V17.0703Z" fill="#6C7086"/>
</svg>
