<svg width="24" height="24" viewBox="0 0 24 24" fill="none" xmlns="http://www.w3.org/2000/svg">
<g clip-path="url(#clip0_1_439)">
<path d="M6.16659 14.5C5.38325 14.5 4.65825 14.775 4.08325 15.2333C3.31659 15.8417 2.83325 16.7833 2.83325 17.8333C2.83325 18.4583 3.00825 19.05 3.31659 19.55C3.89159 20.5167 4.94992 21.1667 6.16659 21.1667C7.00825 21.1667 7.77492 20.8583 8.35826 20.3333C8.61659 20.1167 8.84158 19.85 9.01658 19.55C9.32492 19.05 9.49992 18.4583 9.49992 17.8333C9.49992 15.9917 8.00825 14.5 6.16659 14.5ZM7.89159 17.475L6.11659 19.1166C5.99992 19.225 5.84158 19.2833 5.69158 19.2833C5.53325 19.2833 5.37491 19.225 5.24991 19.1L4.42492 18.275C4.18325 18.0334 4.18325 17.6333 4.42492 17.3916C4.66659 17.15 5.06659 17.15 5.30825 17.3916L5.70825 17.7917L7.04159 16.5583C7.29159 16.325 7.69159 16.3417 7.92492 16.5917C8.15825 16.8417 8.14159 17.2417 7.89159 17.475Z" fill="#6C7086"/>
<path opacity="0.4" d="M18.2332 12.7916H19.9166V11.5916C19.9166 9.86659 18.5083 8.45825 16.7833 8.45825H7.21658C5.49158 8.45825 4.08325 9.86659 4.08325 11.5916V15.2333C4.65825 14.7749 5.38325 14.4999 6.16659 14.4999C8.00825 14.4999 9.49992 15.9916 9.49992 17.8333C9.49992 18.4583 9.32492 19.0499 9.01658 19.5499C8.84158 19.8499 8.61659 20.1166 8.35826 20.3333H16.7833C18.5083 20.3333 19.9166 18.9249 19.9166 17.1999V16.2082H18.3333C17.4333 16.2082 16.6083 15.5499 16.5333 14.6499C16.4833 14.1249 16.6832 13.6332 17.0332 13.2916C17.3416 12.9749 17.7666 12.7916 18.2332 12.7916Z" fill="#6C7086"/>
<path d="M14.3749 5.29153V8.45818H7.21658C5.49158 8.45818 4.08325 9.86652 4.08325 11.5915V8.5332C4.08325 7.54154 4.69158 6.65817 5.61658 6.30817L12.2333 3.80817C13.2666 3.42483 14.3749 4.18319 14.3749 5.29153Z" fill="#6C7086"/>
<path d="M20.7999 13.6417V15.3584C20.7999 15.8168 20.4332 16.1917 19.9666 16.2084H18.3332C17.4332 16.2084 16.6082 15.5501 16.5332 14.6501C16.4832 14.1251 16.6832 13.6334 17.0332 13.2917C17.3416 12.9751 17.7666 12.7917 18.2332 12.7917H19.9666C20.4332 12.8084 20.7999 13.1834 20.7999 13.6417Z" fill="#6C7086"/>
<path d="M13.6666 12.625H7.83325C7.49159 12.625 7.20825 12.3417 7.20825 12C7.20825 11.6583 7.49159 11.375 7.83325 11.375H13.6666C14.0083 11.375 14.2916 11.6583 14.2916 12C14.2916 12.3417 14.0083 12.625 13.6666 12.625Z" fill="#6C7086"/>
</g>
<defs>
<clipPath id="clip0_1_439">
<rect x="2" y="2" width="20" height="20" rx="3" fill="white"/>
</clipPath>
</defs>
</svg>
