<svg width="20" height="20" viewBox="0 0 20 20" fill="none" xmlns="http://www.w3.org/2000/svg">
<path opacity="0.4" d="M17.0001 13.6083C16.7668 14.2333 16.2751 14.7083 15.6334 14.9249C14.7334 15.2249 13.8084 15.4499 12.8751 15.6083C12.7834 15.6249 12.6918 15.6416 12.6001 15.6499C12.4501 15.6749 12.3001 15.6916 12.1501 15.7083C11.9668 15.7333 11.7751 15.7499 11.5834 15.7666C11.0584 15.8083 10.5418 15.8333 10.0168 15.8333C9.48342 15.8333 8.95009 15.8083 8.42509 15.7583C8.20009 15.7416 7.98342 15.7166 7.76675 15.6833C7.64175 15.6666 7.51675 15.6499 7.40009 15.6333C7.30842 15.6166 7.21675 15.6083 7.12509 15.5916C6.20009 15.4416 5.28342 15.2166 4.39175 14.9166C3.72509 14.6916 3.21675 14.2166 2.99175 13.6083C2.76675 13.0083 2.85009 12.3083 3.20842 11.7083L4.15009 10.1416C4.35009 9.79992 4.53342 9.14159 4.53342 8.74159V7.19159C4.53342 4.16659 6.99175 1.70825 10.0168 1.70825C13.0334 1.70825 15.4918 4.16659 15.4918 7.19159V8.74159C15.4918 9.14159 15.6751 9.79992 15.8834 10.1416L16.8251 11.7083C17.1668 12.2916 17.2334 12.9749 17.0001 13.6083Z" fill="#6C7086"/>
<path d="M10 8.9667C9.65003 8.9667 9.3667 8.68337 9.3667 8.33337V5.75003C9.3667 5.40003 9.65003 5.1167 10 5.1167C10.35 5.1167 10.6334 5.40003 10.6334 5.75003V8.33337C10.625 8.68337 10.3417 8.9667 10 8.9667Z" fill="#6C7086"/>
<path d="M12.3582 16.6751C12.0082 17.6417 11.0832 18.3334 9.9999 18.3334C9.34157 18.3334 8.69157 18.0667 8.23324 17.5917C7.96657 17.3417 7.76657 17.0084 7.6499 16.6667C7.75824 16.6834 7.86657 16.6917 7.98324 16.7084C8.1749 16.7334 8.3749 16.7584 8.5749 16.7751C9.0499 16.8167 9.53324 16.8417 10.0166 16.8417C10.4916 16.8417 10.9666 16.8167 11.4332 16.7751C11.6082 16.7584 11.7832 16.7501 11.9499 16.7251C12.0832 16.7084 12.2166 16.6917 12.3582 16.6751Z" fill="#6C7086"/>
</svg>
