<svg width="20" height="20" viewBox="0 0 20 20" fill="none" xmlns="http://www.w3.org/2000/svg">
<g clip-path="url(#clip0_218_5410)">
<path opacity="0.32" d="M1.8015 7.08301C1.6665 8.00217 1.6665 9.20801 1.6665 10.833C1.6665 13.9755 1.6665 15.5472 2.64317 16.523C3.619 17.4997 5.19067 17.4997 8.33317 17.4997H11.6665C14.809 17.4997 16.3807 17.4997 17.3565 16.523C18.3332 15.5472 18.3332 13.9755 18.3332 10.833C18.3332 9.20801 18.3332 8.00217 18.1982 7.08301C16.3007 8.31634 15.0848 9.10217 13.9582 9.58717V9.99967C13.9591 10.0818 13.9438 10.1632 13.9132 10.2393C13.8826 10.3155 13.8373 10.3849 13.7798 10.4436C13.6638 10.562 13.5056 10.6296 13.3398 10.6313C13.1741 10.6331 13.0144 10.5689 12.8959 10.453C12.7775 10.337 12.7099 10.1788 12.7082 10.013C10.9329 10.481 9.06675 10.481 7.2915 10.013C7.28974 10.1788 7.2222 10.337 7.10373 10.453C6.98527 10.5689 6.8256 10.6331 6.65984 10.6313C6.49408 10.6296 6.33581 10.562 6.21985 10.4436C6.10389 10.3251 6.03974 10.1654 6.0415 9.99967V9.58634C4.91484 9.10301 3.69984 8.31634 1.8015 7.08301Z" fill="#686868"/>
<path fill-rule="evenodd" clip-rule="evenodd" d="M8.81759 1.8753H8.80092C8.70592 1.8753 8.63259 1.8753 8.56259 1.87946C8.12957 1.90579 7.71296 2.05446 7.36114 2.30818C7.0093 2.56191 6.73672 2.91028 6.57505 3.3128C6.53953 3.4073 6.50619 3.50261 6.47505 3.59863L6.47171 3.60863C6.38575 3.83585 6.24043 4.03585 6.05088 4.1878C5.86171 4.19446 5.68088 4.20196 5.50755 4.2128C4.13755 4.2928 3.26838 4.5178 2.64255 5.14363C2.43921 5.34696 2.27755 5.57696 2.15088 5.84196C2.1996 5.85868 2.24606 5.88136 2.28921 5.90946C4.03921 7.04696 5.13921 7.75946 6.05255 8.2153C6.08145 8.0621 6.16655 7.92522 6.29118 7.83155C6.4158 7.73786 6.57094 7.69415 6.72614 7.70896C6.88134 7.72379 7.02539 7.79608 7.13003 7.91165C7.23467 8.02722 7.29234 8.17773 7.29171 8.33363V8.71531C9.05842 9.24864 10.9418 9.24864 12.7084 8.71531V8.33363C12.7088 8.17849 12.767 8.02906 12.8715 7.91441C12.9761 7.79975 13.1195 7.72807 13.2739 7.71331C13.4283 7.69856 13.5828 7.74177 13.7072 7.83456C13.8315 7.92733 13.9169 8.06305 13.9468 8.2153C14.8609 7.75863 15.9609 7.04696 17.7109 5.90946C17.7543 5.88132 17.8011 5.85865 17.8501 5.84196C17.7266 5.58277 17.5598 5.34659 17.3568 5.14363C16.7318 4.51863 15.8626 4.29363 14.4926 4.21196C14.3284 4.2028 14.1568 4.1953 13.9776 4.18863C13.7678 4.01779 13.6059 3.79558 13.5076 3.54363L13.5043 3.53613C13.4743 3.44696 13.4509 3.37696 13.4251 3.31196C13.2633 2.90961 12.9906 2.56141 12.6388 2.30783C12.287 2.05426 11.8704 1.90571 11.4376 1.87946C11.3582 1.87572 11.2787 1.87433 11.1993 1.8753H8.81759ZM12.3484 4.01363L12.3443 4.00446L12.3401 3.99446L12.3359 3.98446L12.3334 3.97613L12.3318 3.97196L12.3284 3.96196L12.3251 3.95196L12.3234 3.94696L12.3209 3.9403L12.3193 3.93446L12.3176 3.92946C12.3013 3.87876 12.2838 3.82846 12.2651 3.77863C12.1916 3.59566 12.0677 3.43728 11.9078 3.32192C11.7479 3.20656 11.5585 3.13896 11.3618 3.12696C11.302 3.12488 11.2423 3.12432 11.1826 3.1253H8.81759C8.69842 3.1253 8.66509 3.1253 8.63842 3.12696C8.44159 3.13896 8.2522 3.20656 8.0923 3.32192C7.93239 3.43728 7.8085 3.59566 7.73505 3.77863L7.73255 3.78446L7.72588 3.80196C7.70281 3.86537 7.68114 3.92927 7.66088 3.99363L7.66005 3.99863L7.65755 4.00446L7.65588 4.01113L7.65421 4.01613L7.65088 4.02613L7.64671 4.03613L7.64588 4.0403L7.64255 4.04863L7.63838 4.05863L7.63505 4.06863L7.63088 4.07696C7.61927 4.10721 7.60705 4.13806 7.59421 4.1678L8.33342 4.16696H12.4134C12.3898 4.1166 12.3686 4.06546 12.3484 4.01363Z" fill="#686868"/>
</g>
<defs>
<clipPath id="clip0_218_5410">
<rect width="20" height="20" rx="3" fill="white"/>
</clipPath>
</defs>
</svg>
