<svg width="20" height="20" viewBox="0 0 20 20" fill="none" xmlns="http://www.w3.org/2000/svg">
<path opacity="0.32" fill-rule="evenodd" clip-rule="evenodd" d="M17.4262 6.85587C16.2264 7.15766 14.8098 7.17771 13.5862 6.80392C13.069 6.64587 12.6657 6.24291 12.4911 5.731C12.0562 4.45572 11.9487 2.89476 12.2683 1.69325C11.6066 1.67663 10.854 1.66675 10 1.66675C7.09646 1.66675 5.36621 1.78076 4.38571 1.88657C3.6593 1.96496 3.09918 2.45696 2.96317 3.17481C2.75146 4.29221 2.5 6.38112 2.5 10.0001C2.5 13.6191 2.75146 15.7079 2.96317 16.8253C3.09918 17.5432 3.6593 18.0352 4.38571 18.1136C5.36621 18.2193 7.09646 18.3334 10 18.3334C12.9036 18.3334 14.6338 18.2193 15.6143 18.1136C16.3407 18.0352 16.9008 17.5432 17.0368 16.8253C17.2485 15.7079 17.5 13.6191 17.5 10.0001C17.5 8.78716 17.4717 7.74608 17.4262 6.85587ZM6.66667 10.8334C6.20642 10.8334 5.83333 10.4603 5.83333 10.0001C5.83333 9.53983 6.20642 9.16675 6.66667 9.16675H10C10.4602 9.16675 10.8333 9.53983 10.8333 10.0001C10.8333 10.4603 10.4602 10.8334 10 10.8334H6.66667ZM6.66667 14.5834C6.20642 14.5834 5.83333 14.2103 5.83333 13.7501C5.83333 13.2898 6.20642 12.9167 6.66667 12.9167H12.5C12.9602 12.9167 13.3333 13.2898 13.3333 13.7501C13.3333 14.2103 12.9602 14.5834 12.5 14.5834H6.66667Z" fill="#D0D1D8"/>
<path d="M5.83398 13.7503C5.83398 14.2106 6.20707 14.5837 6.66732 14.5837H12.5007C12.9609 14.5837 13.334 14.2106 13.334 13.7503C13.334 13.2901 12.9609 12.917 12.5007 12.917H6.66732C6.20707 12.917 5.83398 13.2901 5.83398 13.7503Z" fill="#6C7086"/>
<path d="M5.83398 10.0003C5.83398 10.4606 6.20707 10.8337 6.66732 10.8337H10.0007C10.4609 10.8337 10.834 10.4606 10.834 10.0003C10.834 9.54008 10.4609 9.16699 10.0007 9.16699H6.66732C6.20707 9.16699 5.83398 9.54008 5.83398 10.0003Z" fill="#6C7086"/>
<path d="M17.4268 6.85579C16.2271 7.15758 14.8105 7.17762 13.587 6.80383C13.0697 6.64579 12.6663 6.24283 12.4918 5.73092C12.0568 4.45562 11.9493 2.89464 12.269 1.69312C12.269 1.69312 13.2891 2.08328 15.1641 3.95828C17.0391 5.83329 17.4268 6.85579 17.4268 6.85579Z" fill="#6C7086"/>
</svg>
