<svg width="20" height="20" viewBox="0 0 20 20" fill="none" xmlns="http://www.w3.org/2000/svg">
<g clip-path="url(#clip0_1_340)">
<path d="M16.6667 11.875C17.7023 11.875 18.5417 11.0355 18.5417 10C18.5417 8.96447 17.7023 8.125 16.6667 8.125C15.6312 8.125 14.7917 8.96447 14.7917 10C14.7917 11.0355 15.6312 11.875 16.6667 11.875Z" fill="#6C7086"/>
<path d="M16.6667 5.20825C17.7023 5.20825 18.5417 4.36879 18.5417 3.33325C18.5417 2.29772 17.7023 1.45825 16.6667 1.45825C15.6312 1.45825 14.7917 2.29772 14.7917 3.33325C14.7917 4.36879 15.6312 5.20825 16.6667 5.20825Z" fill="#6C7086"/>
<path d="M16.6667 18.5417C17.7023 18.5417 18.5417 17.7023 18.5417 16.6667C18.5417 15.6312 17.7023 14.7917 16.6667 14.7917C15.6312 14.7917 14.7917 15.6312 14.7917 16.6667C14.7917 17.7023 15.6312 18.5417 16.6667 18.5417Z" fill="#6C7086"/>
<path d="M3.33325 11.875C4.36879 11.875 5.20825 11.0355 5.20825 10C5.20825 8.96447 4.36879 8.125 3.33325 8.125C2.29772 8.125 1.45825 8.96447 1.45825 10C1.45825 11.0355 2.29772 11.875 3.33325 11.875Z" fill="#6C7086"/>
<path opacity="0.4" d="M15.8334 10.6249C16.1751 10.6249 16.4584 10.3416 16.4584 9.99992C16.4584 9.65825 16.1751 9.37492 15.8334 9.37492H9.79175V5.83325C9.79175 4.51659 10.3501 3.95825 11.6667 3.95825H15.8334C16.1751 3.95825 16.4584 3.67492 16.4584 3.33325C16.4584 2.99159 16.1751 2.70825 15.8334 2.70825H11.6667C9.65008 2.70825 8.54175 3.81659 8.54175 5.83325V9.37492H4.16675C3.82508 9.37492 3.54175 9.65825 3.54175 9.99992C3.54175 10.3416 3.82508 10.6249 4.16675 10.6249H8.54175V14.1666C8.54175 16.1833 9.65008 17.2916 11.6667 17.2916H15.8334C16.1751 17.2916 16.4584 17.0083 16.4584 16.6666C16.4584 16.3249 16.1751 16.0416 15.8334 16.0416H11.6667C10.3501 16.0416 9.79175 15.4833 9.79175 14.1666V10.6249H15.8334Z" fill="#6C7086"/>
</g>
<defs>
<clipPath id="clip0_1_340">
<rect width="20" height="20" rx="3" fill="white"/>
</clipPath>
</defs>
</svg>
