<svg width="20" height="20" viewBox="0 0 20 20" fill="none" xmlns="http://www.w3.org/2000/svg">
<g clip-path="url(#clip0_17_5675)">
<path opacity="0.4" d="M16.6419 8.33301V14.9997C16.6419 17.4997 15.8086 18.333 13.3086 18.333H6.64193C4.14193 18.333 3.30859 17.4997 3.30859 14.9997V8.33301H16.6419Z" fill="#6C7086"/>
<path d="M17.9173 5.83366V6.66699C17.9173 7.58366 17.4757 8.33366 16.2507 8.33366H3.75065C2.47565 8.33366 2.08398 7.58366 2.08398 6.66699V5.83366C2.08398 4.91699 2.47565 4.16699 3.75065 4.16699H16.2507C17.4757 4.16699 17.9173 4.91699 17.9173 5.83366Z" fill="#6C7086"/>
<path opacity="0.4" d="M9.69998 4.16686H5.09998C4.81665 3.85853 4.82498 3.38353 5.12498 3.08353L6.30832 1.9002C6.61665 1.59186 7.12498 1.59186 7.43332 1.9002L9.69998 4.16686Z" fill="#6C7086"/>
<path opacity="0.4" d="M14.891 4.16686H10.291L12.5577 1.9002C12.866 1.59186 13.3743 1.59186 13.6827 1.9002L14.866 3.08353C15.166 3.38353 15.1743 3.85853 14.891 4.16686Z" fill="#6C7086"/>
<path opacity="0.6" d="M7.4502 8.33301V12.6163C7.4502 13.283 8.18353 13.6747 8.74186 13.3163L9.5252 12.7997C9.80853 12.6163 10.1669 12.6163 10.4419 12.7997L11.1835 13.2997C11.7335 13.6663 12.4752 13.2747 12.4752 12.608V8.33301H7.4502Z" fill="#6C7086"/>
</g>
<defs>
<clipPath id="clip0_17_5675">
<rect width="20" height="20" rx="3" fill="white"/>
</clipPath>
</defs>
</svg>
