<svg width="20" height="20" viewBox="0 0 20 20" fill="none" xmlns="http://www.w3.org/2000/svg">
<path d="M2.08398 10H17.9173" stroke="#D0D1D8" stroke-width="2" stroke-linecap="round" stroke-linejoin="round"/>
<path d="M11.6667 1.66675H8.33333C7.87308 1.66675 7.5 2.03984 7.5 2.50008V5.83341C7.5 6.29366 7.87308 6.66675 8.33333 6.66675H11.6667C12.1269 6.66675 12.5 6.29366 12.5 5.83341V2.50008C12.5 2.03984 12.1269 1.66675 11.6667 1.66675Z" fill="#6C7086" stroke="#D0D1D8" stroke-width="2" stroke-linejoin="round"/>
<path d="M6.66667 13.3333H3.33333C2.8731 13.3333 2.5 13.7063 2.5 14.1666V17.4999C2.5 17.9602 2.8731 18.3333 3.33333 18.3333H6.66667C7.12692 18.3333 7.5 17.9602 7.5 17.4999V14.1666C7.5 13.7063 7.12692 13.3333 6.66667 13.3333Z" fill="#6C7086" stroke="#D0D1D8" stroke-width="2" stroke-linejoin="round"/>
<path d="M16.6667 13.3333H13.3333C12.8731 13.3333 12.5 13.7063 12.5 14.1666V17.4999C12.5 17.9602 12.8731 18.3333 13.3333 18.3333H16.6667C17.1269 18.3333 17.5 17.9602 17.5 17.4999V14.1666C17.5 13.7063 17.1269 13.3333 16.6667 13.3333Z" fill="#6C7086" stroke="#D0D1D8" stroke-width="2" stroke-linejoin="round"/>
<path d="M10 10.0001V6.66675" stroke="#D0D1D8" stroke-width="2" stroke-linecap="round" stroke-linejoin="round"/>
<path d="M15 13.3333V10" stroke="#D0D1D8" stroke-width="2" stroke-linecap="round" stroke-linejoin="round"/>
<path d="M5 13.3333V10" stroke="#D0D1D8" stroke-width="2" stroke-linecap="round" stroke-linejoin="round"/>
</svg>
